<svg width="141" height="60" viewBox="0 0 141 60" fill="none" xmlns="http://www.w3.org/2000/svg">
<path d="M30 10H45.8974C48.1632 10 50 11.8368 50 14.1026V30H30V10Z" fill="#51DFFA"/>
<path d="M30 32.2857H47.7143V45.8974C47.7143 48.1632 45.8775 50 43.6117 50H30V32.2857Z" fill="#B4F1FD"/>
<path d="M10 19.8168C10 17.5511 11.8368 15.7143 14.1026 15.7143H27.7143V33.4286H10V19.8168Z" fill="#06BEE1"/>
<path d="M13.4286 35.7143H27.7143V50H17.5311C15.2654 50 13.4286 48.1632 13.4286 45.8974V35.7143Z" fill="#51DFFA"/>
<path d="M68.9008 20.7122C70.878 20.7122 72.6081 21.1545 74.0911 22.039C75.6 22.9236 76.7447 24.1463 77.5252 25.7073C78.3317 27.2683 78.735 29.0244 78.735 30.9756C78.735 32.9268 78.3317 34.6829 77.5252 36.2439C76.7447 37.8049 75.6 39.0406 74.0911 39.9512C72.6081 40.8358 70.878 41.278 68.9008 41.278C67.7301 41.278 66.5984 41.0699 65.5057 40.6537C64.439 40.2114 63.4504 39.6 62.5398 38.8195V48.5366H57.7008V21.2195H62.5398V23.1317C63.4244 22.3512 64.413 21.7528 65.5057 21.3366C66.5984 20.9203 67.7301 20.7122 68.9008 20.7122ZM68.3154 36.5951C69.9285 36.5951 71.2553 36.0748 72.2959 35.0341C73.3626 33.9675 73.8959 32.6146 73.8959 30.9756C73.8959 29.3366 73.3626 27.9967 72.2959 26.9561C71.2553 25.8894 69.9285 25.3561 68.3154 25.3561C67.2488 25.3561 66.2732 25.6033 65.3886 26.0976C64.5041 26.5659 63.8016 27.2293 63.2813 28.0878C62.787 28.9463 62.5398 29.9219 62.5398 31.0146C62.5398 32.6537 63.0862 33.9935 64.1789 35.0341C65.2976 36.0748 66.6764 36.5951 68.3154 36.5951Z" fill="#06BEE1"/>
<path d="M90.8734 20.8293L90.5221 25.3951C90.3661 25.3431 90.0929 25.3171 89.7026 25.3171C88.0896 25.3171 86.7498 25.7854 85.6831 26.722C84.6425 27.6585 84.1222 28.9333 84.1222 30.5463V40.7317H79.2831V21.2195H84.1222V24.4976C84.5644 23.4569 85.3189 22.5854 86.3856 21.8829C87.4522 21.1805 88.74 20.8293 90.249 20.8293H90.8734Z" fill="#06BEE1"/>
<path d="M99.3273 41.278C97.4802 41.278 95.7631 40.8228 94.1761 39.9122C92.6151 38.9756 91.3664 37.7268 90.4298 36.1659C89.5192 34.5789 89.0639 32.8618 89.0639 31.0146C89.0639 29.1675 89.5192 27.4634 90.4298 25.9024C91.3664 24.3154 92.6151 23.0667 94.1761 22.1561C95.7631 21.2195 97.4802 20.7512 99.3273 20.7512C101.174 20.7512 102.879 21.2195 104.44 22.1561C106.027 23.0667 107.275 24.3154 108.186 25.9024C109.122 27.4634 109.591 29.1675 109.591 31.0146C109.591 32.8618 109.122 34.5789 108.186 36.1659C107.275 37.7268 106.027 38.9756 104.44 39.9122C102.879 40.8228 101.174 41.278 99.3273 41.278ZM99.2883 36.439C100.277 36.439 101.187 36.2049 102.02 35.7366C102.853 35.2423 103.516 34.5789 104.01 33.7463C104.505 32.9138 104.752 32.0033 104.752 31.0146C104.752 30.026 104.505 29.1154 104.01 28.2829C103.516 27.4504 102.853 26.787 102.02 26.2927C101.187 25.7984 100.277 25.5512 99.2883 25.5512C98.2997 25.5512 97.3891 25.7984 96.5566 26.2927C95.7241 26.787 95.0607 27.4504 94.5664 28.2829C94.0981 29.1154 93.8639 30.026 93.8639 31.0146C93.8639 32.0033 94.0981 32.9138 94.5664 33.7463C95.0607 34.5789 95.7241 35.2423 96.5566 35.7366C97.3891 36.2049 98.2997 36.439 99.2883 36.439Z" fill="#06BEE1"/>
<path d="M121.148 20.7122C123.125 20.7122 124.855 21.1545 126.338 22.039C127.847 22.9236 128.992 24.1463 129.772 25.7073C130.579 27.2683 130.982 29.0244 130.982 30.9756C130.982 32.9268 130.579 34.6829 129.772 36.2439C128.992 37.8049 127.847 39.0406 126.338 39.9512C124.855 40.8358 123.125 41.278 121.148 41.278C119.977 41.278 118.845 41.0699 117.753 40.6537C116.686 40.2114 115.697 39.6 114.787 38.8195V48.5366H109.948V21.2195H114.787V23.1317C115.671 22.3512 116.66 21.7528 117.753 21.3366C118.845 20.9203 119.977 20.7122 121.148 20.7122ZM120.562 36.5951C122.175 36.5951 123.502 36.0748 124.543 35.0341C125.61 33.9675 126.143 32.6146 126.143 30.9756C126.143 29.3366 125.61 27.9967 124.543 26.9561C123.502 25.8894 122.175 25.3561 120.562 25.3561C119.496 25.3561 118.52 25.6033 117.636 26.0976C116.751 26.5659 116.049 27.2293 115.528 28.0878C115.034 28.9463 114.787 29.9219 114.787 31.0146C114.787 32.6537 115.333 33.9935 116.426 35.0341C117.545 36.0748 118.923 36.5951 120.562 36.5951Z" fill="#06BEE1"/>
</svg>
